<?xml version="1.0" encoding="UTF-8"?>
<svg version="1.1" xmlns="http://www.w3.org/2000/svg" width="506" height="506">
<path d="M0 0 C2.41390751 2.16524826 4.78452185 4.37050018 7.15234375 6.5859375 C8.07789063 7.40964844 9.0034375 8.23335938 9.95703125 9.08203125 C14.66762724 13.2756106 19.18424379 17.46178838 23.234375 22.30078125 C24.72001485 24.07084095 26.24656692 25.80660424 27.7890625 27.52734375 C63.20307406 67.23521562 83.21069359 118.09347042 89.15234375 170.5859375 C89.28382813 171.72417969 89.4153125 172.86242187 89.55078125 174.03515625 C93.95560683 220.5239235 84.17522022 269.49520334 62.15234375 310.5859375 C61.77883789 311.29814453 61.40533203 312.01035156 61.02050781 312.74414062 C52.23312378 329.47016885 41.65820117 344.44557591 29.15234375 358.5859375 C28.42789062 359.42125 27.7034375 360.2565625 26.95703125 361.1171875 C16.86764875 372.58408716 6.18865113 383.13793933 -6.07226562 392.25927734 C-7.8610851 393.5959722 -9.62830057 394.95786192 -11.39453125 396.32421875 C-48.03669653 424.33071697 -94.04973977 441.56283146 -139.84765625 445.5859375 C-141.07871094 445.69679688 -142.30976563 445.80765625 -143.578125 445.921875 C-187.01766982 449.42735626 -231.68551443 441.76253914 -270.84765625 422.5859375 C-272.07517529 422.00837961 -273.30305673 421.43159149 -274.53125 420.85546875 C-295.74823783 410.74973445 -314.21858359 396.98961179 -331.84765625 381.5859375 C-332.61142578 380.91908936 -332.61142578 380.91908936 -333.390625 380.23876953 C-381.68224095 337.76635538 -410.59644079 276.54589595 -415.59765625 212.7109375 C-415.7072635 210.33700496 -415.78927792 207.96168189 -415.84765625 205.5859375 C-415.87835205 204.51859375 -415.87835205 204.51859375 -415.90966797 203.4296875 C-417.04236458 159.09538063 -407.91795668 114.76930321 -386.84765625 75.5859375 C-386.50653809 74.93850586 -386.16541992 74.29107422 -385.81396484 73.62402344 C-369.95415066 43.61817099 -346.04351269 15.00039821 -318.84765625 -5.4140625 C-318.19571289 -5.90471191 -317.54376953 -6.39536133 -316.87207031 -6.90087891 C-306.88199902 -14.37884014 -296.7174389 -21.28510497 -285.84765625 -27.4140625 C-285.25984375 -27.75244141 -284.67203125 -28.09082031 -284.06640625 -28.43945312 C-200.36939241 -76.43675382 -89.55594978 -66.22901724 0 0 Z " fill="#EA5E8E" transform="translate(415.84765625,58.4140625)"/>
<path d="M0 0 C2.41390751 2.16524826 4.78452185 4.37050018 7.15234375 6.5859375 C8.07789063 7.40964844 9.0034375 8.23335938 9.95703125 9.08203125 C14.66762724 13.2756106 19.18424379 17.46178838 23.234375 22.30078125 C24.72001485 24.07084095 26.24656692 25.80660424 27.7890625 27.52734375 C63.20307406 67.23521562 83.21069359 118.09347042 89.15234375 170.5859375 C89.28382813 171.72417969 89.4153125 172.86242187 89.55078125 174.03515625 C93.95560683 220.5239235 84.17522022 269.49520334 62.15234375 310.5859375 C61.77883789 311.29814453 61.40533203 312.01035156 61.02050781 312.74414062 C52.23312378 329.47016885 41.65820117 344.44557591 29.15234375 358.5859375 C28.42789062 359.42125 27.7034375 360.2565625 26.95703125 361.1171875 C16.86764875 372.58408716 6.18865113 383.13793933 -6.07226562 392.25927734 C-7.8610851 393.5959722 -9.62830057 394.95786192 -11.39453125 396.32421875 C-48.03669653 424.33071697 -94.04973977 441.56283146 -139.84765625 445.5859375 C-141.07871094 445.69679688 -142.30976563 445.80765625 -143.578125 445.921875 C-187.01766982 449.42735626 -231.68551443 441.76253914 -270.84765625 422.5859375 C-272.07517529 422.00837961 -273.30305673 421.43159149 -274.53125 420.85546875 C-295.74823783 410.74973445 -314.21858359 396.98961179 -331.84765625 381.5859375 C-332.61142578 380.91908936 -332.61142578 380.91908936 -333.390625 380.23876953 C-381.68224095 337.76635538 -410.59644079 276.54589595 -415.59765625 212.7109375 C-415.7072635 210.33700496 -415.78927792 207.96168189 -415.84765625 205.5859375 C-415.87835205 204.51859375 -415.87835205 204.51859375 -415.90966797 203.4296875 C-417.04236458 159.09538063 -407.91795668 114.76930321 -386.84765625 75.5859375 C-386.50653809 74.93850586 -386.16541992 74.29107422 -385.81396484 73.62402344 C-369.95415066 43.61817099 -346.04351269 15.00039821 -318.84765625 -5.4140625 C-318.19571289 -5.90471191 -317.54376953 -6.39536133 -316.87207031 -6.90087891 C-306.88199902 -14.37884014 -296.7174389 -21.28510497 -285.84765625 -27.4140625 C-285.25984375 -27.75244141 -284.67203125 -28.09082031 -284.06640625 -28.43945312 C-200.36939241 -76.43675382 -89.55594978 -66.22901724 0 0 Z M-203.84765625 -21.4140625 C-204.69859863 -21.24777344 -205.54954102 -21.08148438 -206.42626953 -20.91015625 C-239.05577241 -14.32449691 -269.50129962 -0.76287453 -295.84765625 19.5859375 C-296.42418945 20.02711914 -297.00072266 20.46830078 -297.59472656 20.92285156 C-313.60426725 33.2512757 -327.98328142 47.19622775 -339.84765625 63.5859375 C-340.61207031 64.62878906 -341.37648438 65.67164062 -342.1640625 66.74609375 C-368.60578846 103.85648132 -383.34414622 148.34268106 -383.22265625 193.9609375 C-383.22211243 194.73907806 -383.2215686 195.51721863 -383.2210083 196.31893921 C-383.17523629 210.68567339 -381.86524026 224.51319232 -378.84765625 238.5859375 C-378.64398438 239.55208984 -378.4403125 240.51824219 -378.23046875 241.51367188 C-370.75200615 275.78995881 -354.79304043 308.06572897 -331.84765625 334.5859375 C-331.17734375 335.36710937 -330.50703125 336.14828125 -329.81640625 336.953125 C-327.53955084 339.54432239 -325.20984514 342.07214544 -322.84765625 344.5859375 C-322.32461914 345.14297363 -321.80158203 345.70000977 -321.26269531 346.27392578 C-311.89051985 356.17032571 -301.9361244 364.67203317 -290.84765625 372.5859375 C-290.22955078 373.03275879 -289.61144531 373.47958008 -288.97460938 373.93994141 C-265.40362226 390.85039714 -237.99612293 402.32141208 -209.78515625 408.7734375 C-209.11403809 408.92844727 -208.44291992 409.08345703 -207.75146484 409.24316406 C-193.42878624 412.35369611 -179.37760266 412.95909682 -164.78515625 412.8984375 C-163.8310083 412.89595001 -162.87686035 412.89346252 -161.89379883 412.89089966 C-148.01960385 412.83490841 -134.4476024 412.58966843 -120.84765625 409.5859375 C-119.82462402 409.36550781 -118.8015918 409.14507812 -117.74755859 408.91796875 C-76.72068017 399.81025473 -40.12933432 380.66269994 -9.84765625 351.5859375 C-9.28401367 351.04952637 -8.72037109 350.51311523 -8.13964844 349.96044922 C0.44887419 341.74894898 8.20107293 333.22850248 15.15234375 323.5859375 C15.62881348 322.92674316 16.1052832 322.26754883 16.59619141 321.58837891 C50.85097163 273.58654026 63.77341584 214.84709187 54.22265625 156.80859375 C48.64848238 125.12845383 36.80407312 94.8669374 18.15234375 68.5859375 C17.57105713 67.75449219 17.57105713 67.75449219 16.97802734 66.90625 C11.33482459 58.88297083 4.93675475 51.64490824 -1.84765625 44.5859375 C-2.77626465 43.60850586 -2.77626465 43.60850586 -3.72363281 42.61132812 C-36.26909334 8.49798409 -79.52394432 -15.00413215 -126.41015625 -22.0390625 C-127.17005859 -22.16023438 -127.92996094 -22.28140625 -128.71289062 -22.40625 C-140.34708134 -24.20363967 -151.90642531 -24.65478878 -163.66015625 -24.6640625 C-164.43288879 -24.66473724 -165.20562134 -24.66541199 -166.00177002 -24.66610718 C-178.82427972 -24.64839516 -191.24224269 -23.92673666 -203.84765625 -21.4140625 Z " fill="#FEFAFB" transform="translate(415.84765625,58.4140625)"/>
<path d="M0 0 C5.7935461 2.52809284 7.68599178 6.42321636 10 12 C10.83221087 14.78690096 11.38233986 17.58799015 11.89453125 20.44921875 C12.04743622 21.24745056 12.20034119 22.04568237 12.35787964 22.86810303 C12.85400284 25.47258514 13.33330927 28.07985446 13.8125 30.6875 C14.15816854 32.51916811 14.50494623 34.35062721 14.8527832 36.18188477 C15.56503167 39.94231785 16.27044235 43.7039316 16.96972656 47.46679688 C17.93353024 52.65212845 18.91300058 57.83436639 19.8984375 63.015625 C21.07357159 69.1996673 22.24460887 75.38445597 23.41015625 81.5703125 C26.45348839 97.71517883 29.52064946 113.8477408 32.91674805 129.92260742 C35.023751 139.9705844 36.97933109 150.04721605 38.9375 160.125 C39.28234396 161.89787666 39.62723316 163.67074453 39.97216797 165.44360352 C40.14215302 166.31733109 40.31213806 167.19105865 40.48727417 168.09126282 C40.74107346 169.39573616 40.74107346 169.39573616 41 170.7265625 C41.16847443 171.59254562 41.33694885 172.45852875 41.51052856 173.35075378 C43.01451627 181.07928415 44.51941637 188.80760068 46.0486145 196.53118896 C46.43021753 198.46313102 46.80779954 200.39586593 47.18530273 202.32861328 C47.52476929 204.03766846 47.52476929 204.03766846 47.87109375 205.78125 C48.06630615 206.77189453 48.26151855 207.76253906 48.46264648 208.78320312 C48.78670859 210.96025068 48.78670859 210.96025068 50 212 C51.50243022 207.5184291 53.0023115 203.03601381 54.50045776 198.55300903 C55.04121551 196.93614155 55.58265695 195.31950256 56.12478638 193.70309448 C59.1892158 184.5651813 62.2055931 175.41752673 65.0703125 166.21484375 C65.55798102 164.66057994 66.04585168 163.10637953 66.53393555 161.55224609 C67.23385033 159.32289236 67.9283802 157.09261497 68.60562134 154.85626221 C69.23259609 152.78639672 69.87814086 150.72313868 70.52734375 148.66015625 C71.06476196 146.90650757 71.06476196 146.90650757 71.61303711 145.11743164 C73.8949168 139.98852445 77.8752251 136.26443542 83 134 C88.05700786 133.4290475 91.73332628 133.57716857 96.16015625 136.41796875 C99.43893847 139.23730378 101.99309743 142.63763206 104.65234375 146.03125 C106.99081774 148.98838848 109.42336461 151.8162709 111.9375 154.625 C113.03384766 155.85089844 113.03384766 155.85089844 114.15234375 157.1015625 C116.39105483 159.40180264 117.30782342 159.96387655 120.51593018 160.13130188 C121.57705017 160.13478134 122.63817017 160.1382608 123.73144531 160.1418457 C124.93319397 160.14888016 126.13494263 160.15591461 127.37310791 160.16316223 C129.33084137 160.16940865 129.33084137 160.16940865 131.328125 160.17578125 C132.67853579 160.18620522 134.02893921 160.19762773 135.3793335 160.21000671 C141.11792607 160.26244092 146.85638804 160.31041695 152.59521484 160.32592773 C156.10559617 160.33603757 159.61537028 160.3654396 163.12551117 160.40724754 C165.10729684 160.42547472 167.08923862 160.42291417 169.07110596 160.41999817 C180.25540256 160.57188059 180.25540256 160.57188059 185 165 C188.19909526 168.73227781 188.46624129 172.10789149 188.28515625 176.85546875 C187.70577496 181.2127335 185.68085619 183.38722943 182.5 186.25 C178.37554053 189.13712163 175.1603437 189.13394731 170.23706055 189.16113281 C169.55375671 189.16609772 168.87045288 189.17106262 168.16644287 189.17617798 C165.90652456 189.19077904 163.64667647 189.19759852 161.38671875 189.203125 C159.81354267 189.20887862 158.2403666 189.21463633 156.66719055 189.22039795 C153.36772333 189.23090241 150.06828042 189.23674855 146.76879883 189.24023438 C142.54875873 189.24571468 138.329042 189.26973492 134.1091032 189.29820633 C130.85851616 189.31686638 127.60800645 189.32204012 124.35737038 189.32357025 C122.80209398 189.32659026 121.24681874 189.33459677 119.69159508 189.34775543 C117.51119045 189.36488522 115.33156838 189.36291917 113.15112305 189.35644531 C111.91218796 189.36009094 110.67325287 189.36373657 109.39677429 189.36749268 C103.60204097 188.74056787 99.85243495 186.36355011 96.1875 181.9375 C95.60355469 181.24527344 95.01960938 180.55304688 94.41796875 179.83984375 C93 178 93 178 92 176 C91.70837479 176.92792107 91.70837479 176.92792107 91.41085815 177.87458801 C86.84291559 192.40592952 82.26076561 206.93268226 77.65748596 221.4528656 C77.24088076 222.76707497 76.82429028 224.08128901 76.40771484 225.39550781 C76.20390544 226.03848596 76.00009604 226.6814641 75.79011059 227.34392643 C74.47275312 231.50203457 73.1616067 235.66205721 71.85400391 239.82324219 C70.27047739 244.86153362 68.67396807 249.89550292 67.06622314 254.92611694 C66.48393514 256.75595406 65.90651885 258.58734913 65.33416748 260.4203186 C64.5417577 262.95513707 63.7321201 265.48381408 62.91796875 268.01171875 C62.69466385 268.74043182 62.47135895 269.4691449 62.24128723 270.21994019 C60.44576318 275.6963678 57.89481606 280.08488269 52.95703125 283.3515625 C48.69432066 284.76395762 44.20623104 284.78340258 39.96484375 283.27734375 C35.92352585 281.15801143 33.96626658 279.02793155 32 275 C31.03937679 271.76716313 30.36172877 268.49045057 29.6875 265.1875 C29.47585205 264.18396484 29.2642041 263.18042969 29.04614258 262.14648438 C27.16955673 253.1192122 25.48786822 244.05538054 23.81671143 234.98822021 C21.71042414 223.5648617 19.42333434 212.18578365 17.0625 200.8125 C14.38954665 187.91833249 11.83031275 175.01113476 9.41699219 162.065979 C6.09087625 144.2487173 2.57186747 126.46935637 -0.9375 108.6875 C-1.08749325 107.9273547 -1.2374865 107.1672094 -1.39202499 106.38402939 C-3.25910568 96.92224224 -5.12837014 87.4608884 -7 78 C-7.2286676 78.93656433 -7.45733521 79.87312866 -7.69293213 80.83807373 C-15.33354146 112.08711091 -23.56234211 143.18135143 -31.83179855 174.26852226 C-34.30173166 183.55442651 -36.74629475 192.8461044 -39.14572144 202.15048218 C-40.39873528 207.00171527 -41.66609593 211.84912848 -42.93615723 216.69592285 C-43.51437457 218.91721497 -44.0858944 221.1402627 -44.65026855 223.3651123 C-45.42241744 226.40586326 -46.21807311 229.43952106 -47.01953125 232.47265625 C-47.23444717 233.34525589 -47.4493631 234.21785553 -47.67079163 235.11689758 C-49.22948114 240.88225538 -51.58355145 244.92688063 -56 249 C-60.26119208 251.13059604 -65.38191987 250.5631805 -70 250 C-73.43189738 248.75146695 -74.94561932 246.97641584 -77 244 C-78.0066131 241.69500449 -78.91208535 239.43518379 -79.76171875 237.07421875 C-80.01667618 236.37955002 -80.27163361 235.68488129 -80.53431702 234.96916199 C-83.9063628 225.664153 -86.90929861 216.23347848 -89.9375 206.8125 C-91.11178815 203.17269399 -92.28813501 199.53355534 -93.46484375 195.89453125 C-93.7516098 195.00653839 -94.03837585 194.11854553 -94.33383179 193.2036438 C-97.49048471 183.44734879 -100.73906039 173.72185266 -104 164 C-104.45479736 164.67538818 -104.90959473 165.35077637 -105.37817383 166.04663086 C-108.36155982 170.44468882 -111.44945793 174.75852692 -114.8125 178.875 C-115.37582031 179.57367188 -115.93914062 180.27234375 -116.51953125 180.9921875 C-123.60397191 186.72667962 -131.62802557 187.59536527 -140.44921875 187.49609375 C-141.50607376 187.49754898 -142.56292877 187.49900421 -143.65180969 187.50050354 C-145.86954527 187.49885419 -148.08729346 187.48740219 -150.30493164 187.46655273 C-153.68880948 187.43748875 -157.07112781 187.4459871 -160.45507812 187.45898438 C-162.61979923 187.45274899 -164.78451543 187.44435961 -166.94921875 187.43359375 C-168.45569221 187.43799721 -168.45569221 187.43799721 -169.99259949 187.44248962 C-176.14955229 187.36012838 -181.93425879 187.03500697 -186.55859375 182.45703125 C-189.08229959 177.73489721 -189.6799985 174.35498819 -189 169 C-186.93447081 165.09024833 -184.88175486 162.13978363 -181 160 C-177.80586936 159.56531538 -174.63328954 159.60690554 -171.4140625 159.62890625 C-169.4947899 159.61152262 -167.5755191 159.59393825 -165.65625 159.57617188 C-162.63896324 159.56610443 -159.62179504 159.56250181 -156.60449219 159.56420898 C-153.68649161 159.56063183 -150.76940076 159.5332613 -147.8515625 159.50390625 C-146.95450592 159.51208878 -146.05744934 159.5202713 -145.13320923 159.52870178 C-139.58246212 159.46297559 -136.40958808 158.69247411 -132 155 C-129.81751975 152.78234914 -129.81751975 152.78234914 -127.875 150.25 C-126.73224609 148.81527344 -126.73224609 148.81527344 -125.56640625 147.3515625 C-123.66453325 144.8922569 -121.80951163 142.40088044 -119.96484375 139.8984375 C-119.44229004 139.19170898 -118.91973633 138.48498047 -118.38134766 137.75683594 C-117.35884315 136.36740094 -116.34379249 134.97244 -115.33740234 133.57128906 C-111.89393811 128.87046513 -108.3135791 124.65678955 -103 122 C-98.34951706 121.43264108 -94.90269423 121.5401369 -90.6875 123.6875 C-86.18361403 127.56293676 -83.65318076 131.1126328 -81.95703125 136.8125 C-81.60447266 137.97394531 -81.25191406 139.13539063 -80.88867188 140.33203125 C-80.3559668 142.14767578 -80.3559668 142.14767578 -79.8125 144 C-79.11136166 146.33353913 -78.40949565 148.66685971 -77.70703125 151 C-77.52044952 151.62559814 -77.3338678 152.25119629 -77.14163208 152.89575195 C-74.88414582 160.44790792 -72.53857742 167.97291127 -70.19921875 175.5 C-69.88854934 176.49966797 -69.88854934 176.49966797 -69.57160378 177.51953125 C-68.38201018 181.34664723 -67.1914088 185.17344875 -66 189 C-54.7189913 146.17184782 -54.7189913 146.17184782 -43.66867065 103.28378296 C-39.36148479 86.36803391 -34.9902108 69.46925992 -30.5715332 52.58227539 C-28.2619015 43.74917023 -25.95802614 34.91763733 -23.796875 26.046875 C-23.48459961 24.78230469 -23.17232422 23.51773438 -22.85058594 22.21484375 C-22.30865066 20.00728191 -21.7792771 17.79657114 -21.26660156 15.58203125 C-18.34622621 3.77091542 -12.42342395 -1.38829093 0 0 Z " fill="#FEFDFE" transform="translate(256,95)"/>
<path d="M0 0 C0.66 0.66 1.32 1.32 2 2 C1.828125 3.96875 1.828125 3.96875 1.25 6.5 C0.14414851 11.87845954 -0.54305468 17.23310472 -1.125 22.6875 C-1.21233398 23.5021875 -1.29966797 24.316875 -1.38964844 25.15625 C-1.59618606 27.10384176 -1.79854384 29.05187606 -2 31 C-2.33 31 -2.66 31 -3 31 C-3.38339966 20.19380948 -2.5423351 10.53253112 0 0 Z " fill="#EB447A" transform="translate(37,211)"/>
<path d="M0 0 C-0.33 0.66 -0.66 1.32 -1 2 C-3.328125 2.37890625 -3.328125 2.37890625 -6.25 2.5625 C-9.92676624 2.80596155 -13.39286816 3.25789193 -17 4 C-18.6662553 4.0370279 -20.33401319 4.04759962 -22 4 C-15.52682323 -0.31545118 -7.56166317 -0.24392462 0 0 Z " fill="#F74F7E" transform="translate(227,36)"/>
<path d="M0 0 C2.37507855 -0.02719556 4.74983964 -0.04693247 7.125 -0.0625 C8.12273437 -0.07506836 8.12273437 -0.07506836 9.140625 -0.08789062 C13.20681354 -0.10782292 17.0120092 0.21109839 21 1 C17.40412047 3.29149186 14.680018 3.1143135 10.5 2.75 C9.3759375 2.66234375 8.251875 2.5746875 7.09375 2.484375 C4.27302871 2.04274692 2.42600506 1.45084617 0 0 Z " fill="#DC4B87" transform="translate(219,468)"/>
<path d="M0 0 C0.33 0 0.66 0 1 0 C1.33 3.96 1.66 7.92 2 12 C0.68 11.67 -0.64 11.34 -2 11 C-1.85957123 9.35369672 -1.71250671 7.70795821 -1.5625 6.0625 C-1.48128906 5.14597656 -1.40007812 4.22945312 -1.31640625 3.28515625 C-1 1 -1 1 0 0 Z " fill="#EE4D7D" transform="translate(249,172)"/>
<path d="M0 0 C1.0625 1.8125 1.0625 1.8125 2 4 C1.67 4.99 1.34 5.98 1 7 C-1.5625 8.1875 -1.5625 8.1875 -4 9 C-4 5.00095031 -2.27413033 3.19799578 0 0 Z " fill="#EB5485" transform="translate(152,258)"/>
<path d="M0 0 C0.66 0.66 1.32 1.32 2 2 C1.7578125 4.6015625 1.7578125 4.6015625 1.125 7.625 C0.81949219 9.12933594 0.81949219 9.12933594 0.5078125 10.6640625 C0.34023438 11.43492187 0.17265625 12.20578125 0 13 C-0.66 12.67 -1.32 12.34 -2 12 C-1 3.42857143 -1 3.42857143 0 0 Z " fill="#ED5081" transform="translate(37,211)"/>
</svg>
