<?xml version="1.0" encoding="UTF-8"?>
<svg version="1.1" xmlns="http://www.w3.org/2000/svg" width="120" height="84">
<path d="M0 0 C1.34191406 -0.0309375 1.34191406 -0.0309375 2.7109375 -0.0625 C9.23673814 -0.1010003 13.60652299 0.82085896 18.5625 5.375 C20.88184321 9.32647362 21.5489295 12.68174409 21.25 17.25 C19.41446169 24.07871596 14.3227326 28.62051588 9.25 33.25 C9.62511719 33.68570313 10.00023438 34.12140625 10.38671875 34.5703125 C11.45886899 35.81800371 12.52489919 37.0709706 13.5859375 38.328125 C14.59685879 39.4956679 15.63740411 40.63945387 16.7265625 41.734375 C20.12479682 45.27171833 21.1107157 48.25412128 21.3828125 53.0078125 C21.08850192 57.97646764 19.30280284 61.2498373 15.75 64.625 C10.91852841 67.76545653 6.4978067 67.46642834 0.9375 67.5 C0.09509766 67.520625 -0.74730469 67.54125 -1.61523438 67.5625 C-6.76222937 67.59469387 -10.30029121 67.12519645 -14.75 64.25 C-18.15390898 60.5700984 -19.6190782 57.98471382 -20 52.9375 C-19.41894426 44.36692784 -13.68015469 39.84448556 -7.75 34.25 C-8.12511719 33.81429687 -8.50023437 33.37859375 -8.88671875 32.9296875 C-9.95499711 31.6865021 -11.02128866 30.44160758 -12.0859375 29.1953125 C-13.12774854 27.97742072 -14.17394341 26.76325016 -15.2265625 25.5546875 C-19.3463945 20.76026313 -20.17767605 17.55822167 -19.75 11.25 C-16.0042344 1.19557656 -9.54556195 0.0540825 0 0 Z M-11.75 11.25 C-12.53722725 16.39617647 -12.53722725 16.39617647 -10.61328125 21.0234375 C-9.07179208 22.71462509 -7.46516852 24.23570707 -5.75 25.75 C-5.17765625 26.28625 -4.6053125 26.8225 -4.015625 27.375 C-2.6112887 28.68571388 -1.18292495 29.97060273 0.25 31.25 C1.94656877 29.83451955 3.62734835 28.40503036 5.29296875 26.953125 C6.52694083 25.8792491 7.7777449 24.82414078 9.05078125 23.796875 C11.4007544 21.75537088 13.00813978 20.29079194 13.7265625 17.19921875 C13.84488262 14.25735035 13.76909224 11.95382328 11.98632812 9.53662109 C9.81320999 7.92633811 8.59296942 7.863506 5.90625 7.8515625 C5.07222656 7.84769531 4.23820312 7.84382812 3.37890625 7.83984375 C2.51136719 7.85144531 1.64382812 7.86304688 0.75 7.875 C-0.55130859 7.85759766 -0.55130859 7.85759766 -1.87890625 7.83984375 C-2.71292969 7.84371094 -3.54695313 7.84757813 -4.40625 7.8515625 C-5.16744141 7.85494629 -5.92863281 7.85833008 -6.71289062 7.86181641 C-9.31497949 8.35766028 -10.18713139 9.1333638 -11.75 11.25 Z M-5.8125 41.75 C-6.38033203 42.2553125 -6.94816406 42.760625 -7.53320312 43.28125 C-10.55493811 46.18327639 -12.14292382 48.18681943 -12.30859375 52.46875 C-12.07654404 56.08821767 -12.07654404 56.08821767 -10.48657227 57.96142578 C-8.3132766 59.57405822 -7.09438911 59.63648769 -4.40625 59.6484375 C-3.57222656 59.65230469 -2.73820312 59.65617187 -1.87890625 59.66015625 C-1.01136719 59.64855469 -0.14382812 59.63695313 0.75 59.625 C2.05130859 59.64240234 2.05130859 59.64240234 3.37890625 59.66015625 C4.21292969 59.65628906 5.04695313 59.65242188 5.90625 59.6484375 C6.66744141 59.64505371 7.42863281 59.64166992 8.21289062 59.63818359 C10.814972 59.14234115 11.68732029 58.36678933 13.25 56.25 C14.02879503 51.11010281 14.02879503 51.11010281 12.12939453 46.4765625 C10.60544606 44.78294878 9.01423375 43.2643692 7.3125 41.75 C6.74853516 41.21375 6.18457031 40.6775 5.60351562 40.125 C-0.07270176 34.79547373 -0.64262192 36.8341845 -5.8125 41.75 Z " fill="currentColor" transform="translate(58.75,7.75)"/>
<path d="M0 0 C1.79244141 0.01740234 1.79244141 0.01740234 3.62109375 0.03515625 C5.41740234 0.04869141 5.41740234 0.04869141 7.25 0.0625 C8.17683594 0.07410156 9.10367188 0.08570312 10.05859375 0.09765625 C10.19140625 5.86328125 10.19140625 5.86328125 8.99609375 7.97265625 C5.95166515 9.74038899 3.49549255 9.46589541 0.05859375 9.09765625 C-2.49699203 7.47911859 -2.85887605 6.38651195 -3.69140625 3.47265625 C-3.77390625 2.68890625 -3.85640625 1.90515625 -3.94140625 1.09765625 C-2.94140625 0.09765625 -2.94140625 0.09765625 0 0 Z " fill="currentColor" transform="translate(55.94140625,20.90234375)"/>
</svg>
