<?xml version="1.0" encoding="UTF-8"?>
<svg version="1.1" xmlns="http://www.w3.org/2000/svg" width="120" height="84">
<path d="M0 0 C2.52775351 3.79163027 2.22443035 6.80874031 2.125 11.1875 C2.11597656 11.93708984 2.10695313 12.68667969 2.09765625 13.45898438 C2.07412578 15.30612654 2.03825561 17.15310412 2 19 C6.04399749 19.75614912 8.9947103 20.06022374 13 19 C13.03867188 18.07767578 13.03867188 18.07767578 13.078125 17.13671875 C13.53640416 10.60624071 13.53640416 10.60624071 15.625 7.875 C19.04581597 6.61469938 21.50194771 7.1578763 25 8 C27.92901289 10.92901289 27.34375871 14.04382804 27.37109375 17.97265625 C27.38463646 19.16827431 27.38463646 19.16827431 27.39845276 20.38804626 C27.41298068 22.08019243 27.42184829 23.7723951 27.42553711 25.46459961 C27.43734495 28.02882949 27.48642352 30.59058177 27.53710938 33.15429688 C27.70162439 49.55952493 27.70162439 49.55952493 22 56 C16.47207624 61.26217821 11.20058123 63.8670778 3.5546875 64.0625 C-4.39061728 63.67373891 -9.7973999 60.5457041 -15.25 54.875 C-18.26210964 51.15463756 -19.5881343 47.0887004 -21.0546875 42.578125 C-21.90581316 40.25687319 -22.77770881 38.64369109 -24.25 36.6875 C-26.34280299 33.47355256 -26.58571408 31.76530481 -26 28 C-24.35233015 25.34542079 -23.07653979 25.02279909 -20.0625 24.125 C-16.44239551 23.97724063 -15.68948349 24.75779562 -13 27 C-12.98541748 26.35973877 -12.97083496 25.71947754 -12.95581055 25.05981445 C-12.88108618 22.14345169 -12.78450707 19.22820313 -12.6875 16.3125 C-12.65366211 14.80139648 -12.65366211 14.80139648 -12.61914062 13.25976562 C-12.27730518 3.84375299 -12.27730518 3.84375299 -9 0 C-5.85135005 -1.57432497 -3.35512575 -0.71895552 0 0 Z M-6 5 C-6.33 16.88 -6.66 28.76 -7 41 C-8.32 41 -9.64 41 -11 41 C-12.8515625 38.59375 -12.8515625 38.59375 -14.625 35.5 C-15.70179455 33.63794479 -16.81628426 31.7959825 -18 30 C-18.66 30 -19.32 30 -20 30 C-19.44339755 33.47876532 -17.82407067 36.02981914 -16.0234375 39.01171875 C-14.92222917 41.15108914 -14.35961381 43.17634217 -13.75 45.5 C-12.09685 50.86355333 -8.56315035 53.90883363 -4 57 C1.49988323 58.83329441 6.9086172 58.80919559 12.25 56.4375 C16.70781983 53.93720584 19.94397588 50.21488193 21.55078125 45.32324219 C22.15413309 42.20286388 22.11112161 39.22470035 22.09765625 36.046875 C22.09553383 35.05654266 22.09553383 35.05654266 22.09336853 34.04620361 C22.08779245 31.94742206 22.07524447 29.84874905 22.0625 27.75 C22.0574819 26.32291821 22.05291954 24.89583475 22.04882812 23.46875 C22.03783088 19.97913168 22.0205828 16.48957644 22 13 C21.01 13 20.02 13 19 13 C18.98018066 13.74161377 18.96036133 14.48322754 18.93994141 15.24731445 C18.84477072 18.60273834 18.73505906 21.95753286 18.625 25.3125 C18.5940625 26.47974609 18.563125 27.64699219 18.53125 28.84960938 C18.49257812 29.96787109 18.45390625 31.08613281 18.4140625 32.23828125 C18.3826416 33.26993408 18.3512207 34.30158691 18.31884766 35.36450195 C18 38 18 38 16 41 C13.24458159 41.27613568 10.74908898 41.37257625 8 41.3125 C6.89398438 41.31733398 6.89398438 41.31733398 5.765625 41.32226562 C0.26707949 41.26707949 0.26707949 41.26707949 -2 39 C-2.24515697 36.49624532 -2.37333658 34.09450521 -2.4140625 31.5859375 C-2.43342865 30.85629791 -2.4527948 30.12665833 -2.4727478 29.37490845 C-2.53258422 27.04172498 -2.57894423 24.70849227 -2.625 22.375 C-2.66317614 20.79424918 -2.70222765 19.21351924 -2.7421875 17.6328125 C-2.83828878 13.7553777 -2.92230412 9.87784551 -3 6 C-3.99 5.67 -4.98 5.34 -6 5 Z M3 25 C1.74050951 26.03406673 1.74050951 26.03406673 1.90234375 28.28515625 C1.91394531 29.20167969 1.92554687 30.11820313 1.9375 31.0625 C1.94652344 31.98160156 1.95554687 32.90070312 1.96484375 33.84765625 C1.97644531 34.55792969 1.98804687 35.26820312 2 36 C2.99 36 3.98 36 5 36 C5 32.37 5 28.74 5 25 C4.34 25 3.68 25 3 25 Z M11 25 C11 28.63 11 32.26 11 36 C11.99 36 12.98 36 14 36 C14 32.7 14 29.4 14 26 C13.01 25.67 12.02 25.34 11 25 Z " fill="currentColor" transform="translate(59,11)"/>
</svg>
