<?xml version="1.0" encoding="UTF-8"?>
<svg version="1.1" xmlns="http://www.w3.org/2000/svg" width="120" height="84">
<path d="M0 0 C2.60546875 0.390625 2.60546875 0.390625 4.5546875 2.21875 C5.12832031 3.01796875 5.70195313 3.8171875 6.29296875 4.640625 C7.16501953 5.82398438 7.16501953 5.82398438 8.0546875 7.03125 C11.71356661 12.59790738 11.71356661 12.59790738 11.23046875 16.140625 C11.02421875 16.883125 10.81796875 17.625625 10.60546875 18.390625 C6.98573473 19.70689192 4.50979744 20.390625 0.60546875 20.390625 C0.50234375 21.4425 0.39921875 22.494375 0.29296875 23.578125 C-0.52322385 28.10428395 -1.49120331 30.90196994 -5.20092773 33.8034668 C-7.42084808 35.30752947 -9.67377382 36.73466898 -11.95703125 38.140625 C-12.73755859 38.63433594 -13.51808594 39.12804688 -14.32226562 39.63671875 C-22.09283377 44.53103691 -22.09283377 44.53103691 -27.39453125 44.515625 C-28.28140625 44.51820312 -29.16828125 44.52078125 -30.08203125 44.5234375 C-32.39453125 44.390625 -32.39453125 44.390625 -34.39453125 43.390625 C-34.68328125 44.15375 -34.97203125 44.916875 -35.26953125 45.703125 C-36.39453125 48.390625 -36.39453125 48.390625 -38.39453125 51.390625 C-41.24609375 51.93359375 -41.24609375 51.93359375 -44.39453125 51.390625 C-46.73046875 48.94140625 -46.73046875 48.94140625 -48.76953125 45.703125 C-49.80207031 44.11951172 -49.80207031 44.11951172 -50.85546875 42.50390625 C-52.39268331 39.39436309 -52.92974306 37.78624659 -52.39453125 34.390625 C-49.9968994 31.99299315 -49.06179627 32.04781914 -45.76953125 31.765625 C-44.95226563 31.69085938 -44.135 31.61609375 -43.29296875 31.5390625 C-42.66648437 31.49007812 -42.04 31.44109375 -41.39453125 31.390625 C-41.51828125 30.09125 -41.51828125 30.09125 -41.64453125 28.765625 C-41.3432493 24.69831862 -40.06194917 22.36032585 -37.39453125 19.390625 C-34.6561634 17.22227897 -31.74690931 15.39902148 -28.76953125 13.578125 C-27.99351563 13.08892578 -27.2175 12.59972656 -26.41796875 12.09570312 C-18.6971072 7.25005825 -18.6971072 7.25005825 -13.95703125 7.265625 C-12.78333984 7.26175781 -12.78333984 7.26175781 -11.5859375 7.2578125 C-9.39453125 7.390625 -9.39453125 7.390625 -6.39453125 8.390625 C-6.10578125 7.441875 -5.81703125 6.493125 -5.51953125 5.515625 C-4.26483124 2.03034719 -3.74065174 0.61022051 0 0 Z M-0.39453125 8.390625 C-1.05453125 10.040625 -1.71453125 11.690625 -2.39453125 13.390625 C-1.40453125 13.720625 -0.41453125 14.050625 0.60546875 14.390625 C1.59546875 13.730625 2.58546875 13.070625 3.60546875 12.390625 C2.28546875 11.070625 0.96546875 9.750625 -0.39453125 8.390625 Z M-19.14453125 15.4375 C-20.1809375 16.0871875 -20.1809375 16.0871875 -21.23828125 16.75 C-21.94984375 17.20890625 -22.66140625 17.6678125 -23.39453125 18.140625 C-24.10609375 18.5840625 -24.81765625 19.0275 -25.55078125 19.484375 C-29.20232301 21.80065149 -32.61073243 24.02598266 -35.39453125 27.390625 C-36.1446832 30.34754209 -36.1446832 30.34754209 -35.39453125 33.390625 C-33.47786458 36.47395833 -33.47786458 36.47395833 -30.39453125 38.390625 C-24.29492029 38.24911998 -20.48902252 35.99973117 -15.64453125 32.640625 C-14.98582031 32.21007812 -14.32710937 31.77953125 -13.6484375 31.3359375 C-9.92570629 28.81384374 -7.2143024 26.64846791 -5.39453125 22.390625 C-6.02097483 18.91038286 -6.76400859 17.02114766 -9.26953125 14.515625 C-13.08391764 12.49624397 -15.73142236 13.28491428 -19.14453125 15.4375 Z M-44.39453125 39.390625 C-43.40453125 40.875625 -43.40453125 40.875625 -42.39453125 42.390625 C-41.73453125 42.390625 -41.07453125 42.390625 -40.39453125 42.390625 C-40.06453125 40.740625 -39.73453125 39.090625 -39.39453125 37.390625 C-41.23499513 37.390625 -42.79082719 38.56290677 -44.39453125 39.390625 Z " fill="currentColor" transform="translate(80.39453125,15.609375)"/>
</svg>
