<?xml version="1.0" encoding="UTF-8"?>
<svg version="1.1" xmlns="http://www.w3.org/2000/svg" width="120" height="84">
<path d="M0 0 C5.19804627 0 8.35249609 2.36023044 12.36328125 5.33203125 C14.22589891 7.23021202 14.73129164 8.37203223 15 11 C13.8125 12.75 13.8125 12.75 12 14 C10.68 14 9.36 14 8 14 C12.11745681 20.28536021 16.59451859 25.34004902 23.984375 27.609375 C31.5395906 29.07356407 38.36142006 27.95022939 45 24 C47.67069873 21.5547824 49.85676612 18.9107049 52 16 C52.55816406 15.2575 53.11632812 14.515 53.69140625 13.75 C54.12324219 13.1725 54.55507812 12.595 55 12 C57.475 12.495 57.475 12.495 60 13 C61 16 61 16 59.625 19.6875 C55.63003327 27.11649635 48.79810055 32.60782784 40.8671875 35.375 C31.33468425 37.45292986 21.48024168 37.06417259 13 32 C5.25229787 26.71623141 0.14537129 19.16658641 -2 10 C-2.2442911 7.24003036 -2.18604874 4.79073108 -2 2 C-1.34 1.34 -0.68 0.68 0 0 Z " fill="currentColor" transform="translate(30,38)"/>
<path d="M0 0 C6.94524162 5.4915864 12.70739913 12.30455067 14.6875 21.125 C14.87890202 24.13706338 14.9598334 27.11666595 14.6875 30.125 C13.6875 31.125 13.6875 31.125 11.1875 31.625 C6.01944867 30.88670695 2.1054639 28.05186075 -1.3125 24.125 C-1.5703125 21.38671875 -1.5703125 21.38671875 -1.3125 19.125 C0.6675 18.465 2.6475 17.805 4.6875 17.125 C0.33432447 10.24527553 -4.41397149 5.84257918 -12.3515625 3.53125 C-20.55544018 2.09312005 -27.62835371 4.63993906 -34.3125 9.328125 C-36.98718933 11.7311662 -38.47343672 14.42618673 -40.1875 17.55078125 C-41.3125 19.125 -41.3125 19.125 -44.0625 19.6875 C-46.3125 19.125 -46.3125 19.125 -47.3125 18.125 C-47.54120712 12.75038268 -45.83531063 10.08280038 -42.375 6 C-30.76756573 -6.1628139 -14.56191462 -8.24259318 0 0 Z " fill="currentColor" transform="translate(78.3125,13.875)"/>
<path d="M0 0 C3.99500618 1.3697164 6.80009492 3.25722422 10 6 C10 4.35 10 2.7 10 1 C11.67578125 0.26953125 11.67578125 0.26953125 14 0 C16.54296875 1.51171875 16.54296875 1.51171875 19.1875 3.6875 C20.06792969 4.39261719 20.94835937 5.09773438 21.85546875 5.82421875 C23.99630071 7.9962468 24.65773942 9.02703062 25 12 C23.45519587 13.53880489 21.8884306 15.05558825 20.3125 16.5625 C19.44238281 17.40941406 18.57226562 18.25632812 17.67578125 19.12890625 C15 21 15 21 12.16796875 20.77734375 C11.45253906 20.52082031 10.73710938 20.26429687 10 20 C9.67 18.68 9.34 17.36 9 16 C8.113125 16.845625 7.22625 17.69125 6.3125 18.5625 C4.80078125 20.00390625 4.80078125 20.00390625 3 21 C0.29296875 20.65234375 0.29296875 20.65234375 -2 20 C-2.05379226 17.04142591 -2.09357093 14.08382279 -2.125 11.125 C-2.14175781 10.28324219 -2.15851562 9.44148438 -2.17578125 8.57421875 C-2.18222656 7.76855469 -2.18867187 6.96289062 -2.1953125 6.1328125 C-2.21102295 5.01737061 -2.21102295 5.01737061 -2.22705078 3.87939453 C-2 2 -2 2 0 0 Z " fill="currentColor" transform="translate(51,31)"/>
</svg>
