<?xml version="1.0" encoding="UTF-8"?>
<svg version="1.1" xmlns="http://www.w3.org/2000/svg" width="120" height="84">
<path d="M0 0 C2.125 0.9375 2.125 0.9375 4 2 C3.54617334 6.80205416 1.630757 8.87934849 -1.71582031 12.24926758 C-2.20536697 12.74742981 -2.69491364 13.24559204 -3.19929504 13.7588501 C-4.81552401 15.39772695 -6.44600807 17.02148716 -8.078125 18.64453125 C-9.20866443 19.78030606 -10.33868238 20.91660018 -11.46820068 22.0533905 C-13.83563363 24.43122498 -16.21039565 26.80143044 -18.59033203 29.16674805 C-21.64005698 32.19926937 -24.66894211 35.25168726 -27.6924324 38.31033802 C-30.02047329 40.6603308 -32.36008374 42.99852743 -34.70326996 45.33341026 C-35.82503159 46.45435148 -36.94295108 47.57915133 -38.05692291 48.70783424 C-39.61510634 50.28342588 -41.18837748 51.84222299 -42.76660156 53.39770508 C-43.65849182 54.28863358 -44.55038208 55.17956207 -45.46929932 56.0974884 C-48.29849501 58.22440039 -49.54901564 58.45683061 -53 58 C-53.78926086 55.83282471 -53.78926086 55.83282471 -54 53 C-52.15959167 50.43133545 -52.15959167 50.43133545 -49.37182617 47.67480469 C-48.86799911 47.16849518 -48.36417206 46.66218567 -47.84507751 46.14053345 C-46.17502877 44.46956595 -44.48460134 42.82096526 -42.79296875 41.171875 C-41.629245 40.01680479 -40.46676956 38.86047565 -39.30549622 37.70294189 C-36.24357163 34.65825993 -33.16361604 31.63244753 -30.08001709 28.60974121 C-27.56309206 26.13640598 -25.05921896 23.65008865 -22.55594921 21.16294479 C-19.57670437 18.2032905 -16.59200761 15.24916718 -13.60546875 12.296875 C-13.03349447 11.73132652 -12.4615202 11.16577805 -11.87221336 10.58309174 C-10.25648063 8.98829883 -8.63715245 7.39726312 -7.01635742 5.80761719 C-6.09400803 4.90114441 -5.17165863 3.99467163 -4.22135925 3.06072998 C-2 1 -2 1 0 0 Z " fill="currentColor" transform="translate(85,12)"/>
<path d="M0 0 C0.77481079 1.6837616 0.77481079 1.6837616 1 4 C-0.74429321 6.38594055 -0.74429321 6.38594055 -3.39697266 9.05981445 C-4.11622421 9.79461784 -4.11622421 9.79461784 -4.8500061 10.54426575 C-6.4421554 12.16356838 -8.0520841 13.76373386 -9.6640625 15.36328125 C-10.77518895 16.4803132 -11.88564393 17.59801344 -12.99545288 18.71635437 C-15.32615467 21.05895184 -17.6659406 23.39198939 -20.01220703 25.71899414 C-23.02066748 28.7045754 -26.0036022 31.71426421 -28.97995949 34.73180866 C-31.2684538 37.04585862 -33.57083165 39.3456848 -35.87757492 41.64153099 C-36.98333886 42.74580593 -38.08451179 43.85469765 -39.18098831 44.96819496 C-40.71557025 46.52270338 -42.26800662 48.05683829 -43.82666016 49.5871582 C-44.70681793 50.46555862 -45.58697571 51.34395905 -46.49380493 52.24897766 C-49 54 -49 54 -51.82333374 53.77580261 C-52.54163361 53.51978775 -53.25993347 53.26377289 -54 53 C-54.41992502 49.63619386 -54.25611449 48.34220329 -52.19119263 45.58319092 C-51.34451019 44.74459534 -50.49782776 43.90599976 -49.62548828 43.04199219 C-49.16052948 42.57469696 -48.69557068 42.10740173 -48.21652222 41.62594604 C-46.67949504 40.0873064 -45.12541095 38.56723016 -43.5703125 37.046875 C-42.49791489 35.98126745 -41.42654766 34.91462204 -40.35617065 33.84698486 C-38.11219251 31.61368071 -35.86045576 29.38863489 -33.60205078 27.16992188 C-30.70422103 24.32302059 -27.81945397 21.46334345 -24.93953133 18.59833908 C-22.19534234 15.86892717 -19.445961 13.14477523 -16.6953125 10.421875 C-15.9060607 9.63998936 -15.9060607 9.63998936 -15.10086441 8.84230804 C-13.6144616 7.37215507 -12.12455844 5.90565598 -10.63330078 4.44042969 C-9.78502716 3.60501648 -8.93675354 2.76960327 -8.06277466 1.90887451 C-4.99265647 -0.93218732 -3.9119658 -1.17358974 0 0 Z " fill="currentColor" transform="translate(95,23)"/>
<path d="M0 0 C0.71829987 0.25601486 1.43659973 0.51202972 2.17666626 0.77580261 C1.71029537 5.49347453 -0.07715859 7.53922524 -3.37142944 10.85734558 C-3.84307526 11.33760696 -4.31472107 11.81786835 -4.80065918 12.31268311 C-6.35677448 13.89143476 -7.92711475 15.45506623 -9.49911499 17.01799011 C-10.5872098 18.11131992 -11.67478296 19.20516911 -12.76185608 20.29951477 C-15.03933179 22.58738917 -17.32412639 24.86763283 -19.61410522 27.14299011 C-22.55184518 30.0635056 -25.46869396 33.00393484 -28.38020039 35.95057487 C-30.61985946 38.21215685 -32.87105068 40.46197069 -35.12584496 42.70845413 C-36.20656759 43.78835517 -37.28343644 44.87212697 -38.35637856 45.95975876 C-39.85493218 47.47567231 -41.36846509 48.97482193 -42.88705444 50.47062683 C-44.17492607 51.75705582 -44.17492607 51.75705582 -45.48881531 53.06947327 C-47.82333374 54.77580261 -47.82333374 54.77580261 -50.1318512 54.5448761 C-51.82333374 53.77580261 -51.82333374 53.77580261 -52.59814453 52.09204102 C-52.82333374 49.77580261 -52.82333374 49.77580261 -51.07904053 47.38986206 C-50.20365631 46.50748367 -49.32827209 45.62510529 -48.42636108 44.71598816 C-47.94686005 44.22611923 -47.46735901 43.73625031 -46.97332764 43.23153687 C-45.38117834 41.61223424 -43.77124964 40.01206875 -42.15927124 38.41252136 C-41.04814479 37.29548942 -39.93768981 36.17778918 -38.82788086 35.05944824 C-36.49717907 32.71685077 -34.15739314 30.38381323 -31.81112671 28.05680847 C-28.80266626 25.07122721 -25.81973154 22.06153841 -22.84337425 19.04399395 C-20.55487994 16.72994399 -18.25250209 14.43011781 -15.94575882 12.13427162 C-14.83999488 11.02999668 -13.73882195 9.92110496 -12.64234543 8.80760765 C-11.10776349 7.25309923 -9.55532712 5.71896432 -7.99667358 4.18864441 C-7.11651581 3.31024399 -6.23635803 2.43184357 -5.32952881 1.52682495 C-2.82333374 -0.22419739 -2.82333374 -0.22419739 0 0 Z " fill="currentColor" transform="translate(76.82333374023438,6.2241973876953125)"/>
<path d="M0 0 C0.73756027 0.23675446 1.47512054 0.47350891 2.23503113 0.71743774 C2.5437397 3.78899891 2.54580783 5.27237063 0.75012207 7.84399414 C-0.29314995 8.89775742 -0.29314995 8.89775742 -1.35749817 9.97280884 C-2.14218979 10.77648895 -2.92688141 11.58016907 -3.73535156 12.40820312 C-5.02425041 13.68662582 -5.02425041 13.68662582 -6.33918762 14.99087524 C-7.21517105 15.87401398 -8.09115448 16.75715271 -8.99368286 17.66705322 C-11.3250747 20.0082264 -13.66853511 22.33651008 -16.01600647 24.66152954 C-17.9270747 26.56520847 -19.81742579 28.48882388 -21.70825481 30.41257286 C-23.96687004 32.70289921 -26.24782134 34.97072498 -28.52668762 37.24087524 C-29.80040474 38.53751602 -29.80040474 38.53751602 -31.09985352 39.86035156 C-31.90030594 40.64511871 -32.70075836 41.42988586 -33.52546692 42.23843384 C-34.22495956 42.93616913 -34.92445221 43.63390442 -35.6451416 44.3527832 C-37.76496887 45.71743774 -37.76496887 45.71743774 -40.52993774 45.43487549 C-41.26749802 45.19812103 -42.00505829 44.96136658 -42.76496887 44.71743774 C-43.07367745 41.64587658 -43.07574557 40.16250485 -41.28005981 37.59088135 C-40.58454514 36.8883725 -39.88903046 36.18586365 -39.17243958 35.46206665 C-38.38774796 34.65838654 -37.60305634 33.85470642 -36.79458618 33.02667236 C-35.93532028 32.17439056 -35.07605438 31.32210876 -34.19075012 30.44400024 C-32.87677498 29.11929214 -32.87677498 29.11929214 -31.53625488 27.76782227 C-29.20486304 25.42664908 -26.86140264 23.0983654 -24.51393127 20.77334595 C-22.60286305 18.86966702 -20.71251196 16.94605161 -18.82168293 15.02230263 C-16.56306771 12.73197627 -14.2821164 10.46415051 -12.00325012 8.19400024 C-10.729533 6.89735947 -10.729533 6.89735947 -9.43008423 5.57452393 C-8.62963181 4.78975677 -7.82917938 4.00498962 -7.00447083 3.19644165 C-6.30497818 2.49870636 -5.60548553 1.80097107 -4.88479614 1.08209229 C-2.76496887 -0.28256226 -2.76496887 -0.28256226 0 0 Z " fill="currentColor" transform="translate(63.76496887207031,2.282562255859375)"/>
<path d="M0 0 C0.73756027 0.23675446 1.47512054 0.47350891 2.23503113 0.71743774 C2.53259241 3.75246366 2.55972763 5.25393031 0.78135681 7.79257202 C0.10059082 8.47128357 -0.58017517 9.14999512 -1.28157043 9.84927368 C-2.04946899 10.62647766 -2.81736755 11.40368164 -3.60853577 12.20443726 C-4.44906494 13.02857117 -5.28959412 13.85270508 -6.15559387 14.70181274 C-7.01175293 15.55801208 -7.86791199 16.41421143 -8.75001526 17.2963562 C-10.56334358 19.10432172 -12.3827974 20.90616113 -14.20783997 22.70230103 C-17.00399958 25.45663254 -19.77825987 28.23164973 -22.55012512 31.01040649 C-24.31318823 32.76297684 -26.07747109 34.51432116 -27.84309387 36.26431274 C-28.67552612 37.09654358 -29.50795837 37.92877441 -30.36561584 38.78622437 C-31.14612305 39.5508197 -31.92663025 40.31541504 -32.73078918 41.10317993 C-33.41473755 41.77870911 -34.09868591 42.45423828 -34.80335999 43.15023804 C-36.86380534 44.79640174 -38.15930302 45.42303189 -40.76496887 45.71743774 C-41.42496887 45.38743774 -42.08496887 45.05743774 -42.76496887 44.71743774 C-43.07367745 41.64587658 -43.07574557 40.16250485 -41.28005981 37.59088135 C-40.58454514 36.8883725 -39.88903046 36.18586365 -39.17243958 35.46206665 C-38.38774796 34.65838654 -37.60305634 33.85470642 -36.79458618 33.02667236 C-35.93532028 32.17439056 -35.07605438 31.32210876 -34.19075012 30.44400024 C-32.87677498 29.11929214 -32.87677498 29.11929214 -31.53625488 27.76782227 C-29.20486304 25.42664908 -26.86140264 23.0983654 -24.51393127 20.77334595 C-22.60286305 18.86966702 -20.71251196 16.94605161 -18.82168293 15.02230263 C-16.56306771 12.73197627 -14.2821164 10.46415051 -12.00325012 8.19400024 C-10.729533 6.89735947 -10.729533 6.89735947 -9.43008423 5.57452393 C-8.62963181 4.78975677 -7.82917938 4.00498962 -7.00447083 3.19644165 C-6.30497818 2.49870636 -5.60548553 1.80097107 -4.88479614 1.08209229 C-2.76496887 -0.28256226 -2.76496887 -0.28256226 0 0 Z " fill="currentColor" transform="translate(96.76496887207031,35.282562255859375)"/>
<path d="M0 0 C0.68798828 2.2644043 0.68798828 2.2644043 1 5 C-0.18408203 6.94458008 -0.18408203 6.94458008 -2.0078125 8.76953125 C-2.99394531 9.76049805 -2.99394531 9.76049805 -4 10.77148438 C-4.70125 11.44501953 -5.4025 12.11855469 -6.125 12.8125 C-6.80304688 13.50537109 -7.48109375 14.19824219 -8.1796875 14.91210938 C-13.30251896 19.95055311 -13.30251896 19.95055311 -16.73779297 20.1940918 C-17.48432129 20.1300415 -18.23084961 20.06599121 -19 20 C-19.68359375 18.234375 -19.68359375 18.234375 -20 16 C-18.84765625 14.140625 -18.84765625 14.140625 -17.0625 12.25 C-16.41667969 11.56421875 -15.77085938 10.8784375 -15.10546875 10.171875 C-14.41066406 9.45515625 -13.71585937 8.7384375 -13 8 C-11.97326172 6.86304688 -11.97326172 6.86304688 -10.92578125 5.703125 C-10.24902344 4.97609375 -9.57226562 4.2490625 -8.875 3.5 C-8.25367187 2.8296875 -7.63234375 2.159375 -6.9921875 1.46875 C-4.50582791 -0.3643308 -3.0197047 -0.29256654 0 0 Z " fill="currentColor" transform="translate(94,56)"/>
<path d="M0 0 C0.68359375 1.765625 0.68359375 1.765625 1 4 C-0.15234375 5.859375 -0.15234375 5.859375 -1.9375 7.75 C-2.58332031 8.43449219 -3.22914062 9.11898438 -3.89453125 9.82421875 C-4.58933594 10.54222656 -5.28414062 11.26023437 -6 12 C-6.68449219 12.76957031 -7.36898437 13.53914063 -8.07421875 14.33203125 C-8.75097656 15.06808594 -9.42773438 15.80414063 -10.125 16.5625 C-10.74632812 17.24441406 -11.36765625 17.92632813 -12.0078125 18.62890625 C-14 20 -14 20 -16.7421875 19.71484375 C-17.48726562 19.47894531 -18.23234375 19.24304688 -19 19 C-19.68798828 17.22949219 -19.68798828 17.22949219 -20 15 C-18.81591797 13.16894531 -18.81591797 13.16894531 -16.9921875 11.328125 C-16.33476562 10.66425781 -15.67734375 10.00039063 -15 9.31640625 C-14.29875 8.63449219 -13.5975 7.95257812 -12.875 7.25 C-12.19695313 6.55261719 -11.51890625 5.85523438 -10.8203125 5.13671875 C-9.82257812 4.14865234 -9.82257812 4.14865234 -8.8046875 3.140625 C-8.19608887 2.53766602 -7.58749023 1.93470703 -6.96044922 1.31347656 C-4.49753458 -0.33664558 -2.9054259 -0.25210041 0 0 Z " fill="currentColor" transform="translate(45,7)"/>
</svg>
